<svg width="80" height="80" viewBox="0 0 80 80" fill="none" xmlns="http://www.w3.org/2000/svg">
<rect width="80" height="80" rx="40" fill="white"/>
<path d="M22.875 27.2604V37.5417C22.875 47.3353 28.6678 54.5322 39.9615 58.9815C40.3075 59.1179 40.6925 59.1179 41.0385 58.9815C52.3323 54.5322 58.125 47.3333 58.125 37.5417V27.2604C58.125 26.8709 57.9703 26.4973 57.6948 26.2219C57.4194 25.9464 57.0458 25.7917 56.6563 25.7917C51.4412 25.7917 46.3593 23.945 41.3813 20.2104C41.127 20.0197 40.8178 19.9167 40.5 19.9167C40.1822 19.9167 39.873 20.0197 39.6188 20.2104C34.6407 23.945 29.5588 25.7917 24.3438 25.7917C23.9542 25.7917 23.5806 25.9464 23.3052 26.2219C23.0297 26.4973 22.875 26.8709 22.875 27.2604ZM44.4069 37.5417C44.4069 38.32 44.1749 39.0808 43.7407 39.7268C43.3064 40.3727 42.6895 40.8747 41.9688 41.1685V45.8646C41.9688 46.2541 41.814 46.6277 41.5386 46.9032C41.2631 47.1786 40.8895 47.3333 40.5 47.3333C40.1105 47.3333 39.7369 47.1786 39.4614 46.9032C39.186 46.6277 39.0313 46.2541 39.0313 45.8646V41.1763C38.3713 40.9115 37.796 40.4719 37.3669 39.9049C36.9378 39.3378 36.6712 38.6646 36.5957 37.9576C36.5202 37.2505 36.6386 36.5362 36.9382 35.8913C37.2378 35.2464 37.7073 34.6952 38.2964 34.2969C38.8855 33.8986 39.5719 33.6682 40.282 33.6304C40.9921 33.5926 41.6991 33.7488 42.3271 34.0823C42.9551 34.4158 43.4805 34.914 43.8469 35.5235C44.2133 36.1329 44.4069 36.8306 44.4069 37.5417Z" fill="#0080FF"/>
</svg>
